<svg id="Layer_1" data-name="Layer 1" xmlns="http://www.w3.org/2000/svg" viewBox="0 0 899.15 745.06"><defs><style>.cls-1{fill:#3b5c9b;}.cls-2{fill:none;stroke:#3b5c9b;stroke-miterlimit:10;stroke-width:10px;}.cls-3{fill:#3c5d9c;}</style></defs><path class="cls-1" d="M924.85,170.42h26.48a27.41,27.41,0,0,1,9.95,1.72,23,23,0,0,1,7.66,4.77,20.76,20.76,0,0,1,4.92,7.26,24,24,0,0,1,1.73,9.18,19.1,19.1,0,0,1-1.22,6.85A20.42,20.42,0,0,1,971,206a24.63,24.63,0,0,1-5,4.57,25.05,25.05,0,0,1-6,3.09l-.1.71,19.48,27.91v.81H963.71l-18.77-27.29h-6.39v27.29h-13.7Zm26.38,32.77a10.64,10.64,0,0,0,7.66-2.84,9.48,9.48,0,0,0,3-7.2,11,11,0,0,0-.66-3.76,9.41,9.41,0,0,0-2-3.24,9.79,9.79,0,0,0-3.3-2.29,11.27,11.27,0,0,0-4.51-.86H938.55v20.19Z" transform="translate(-110.85 -147)"/><circle class="cls-2" cx="838.15" cy="61" r="56"/><path class="cls-1" d="M387,436c-16-3.12-31.31-3.11-41.87-19.53-5.63-8.77-18.24-13.35-28.26-18.79-2.28-1.24-6.87,1.75-10.4,2.79,1.7,2.95,2.81,6.56,5.24,8.68,3,2.65,8.3,3.22,10.54,6.23,3.09,4.13,4.25,9.7,6.24,14.65-4.43,1.53-9.05,4.77-13.24,4.27-14.36-1.7-22.46,3.2-24.41,17.73-2.06,15.31-.24,29.55,12.81,40.7,3.1,2.65,4.61,9.06,4.21,13.51-.95,10.69-3.38,21.25-5.35,31.84C297,567.57,283,579.28,253.12,579.28H228.43c-6.54-77.22,39-204.48,157.94-270.82,129.08-72,279.66-40.27,366.15,43.78-15.48,0-30.43-.31-45.36.15-5.59.18-12.63.4-16.41,3.63-12.92,11.08-26.87,6.54-40.65,6.26-1.27-1.65-2.54-3.31-3.82-5,3-1.22,6.52-1.77,8.75-3.79,5.48-5,11.17-10.08,15.15-16.19,2.23-3.44,3.22-10.58,1.16-13.1s-9.15-2.95-13.08-1.58C651.75,324.93,645.75,329,640,333c-12.25,8.42-19.58,8.42-29.26-2.39-7.09-7.91-13.41-11.37-23.26-4-2.74,2.05-9.08,1.17-12.88-.46-8.54-3.66-10.75.8-13.34,7.49-2.4,6.17-6.5,11.67-9.43,17.66-1.55,3.15-3.45,6.87-3.09,10.1,2.23,19.85-7.39,34.61-20.81,47-7.92,7.3-8.73,16.14-5.11,23.48,2.1,4.27,11.46,5.07,17.64,7.17a7.65,7.65,0,0,0,4.91-.19c19.13-7.92,37.91,1.35,56.88,1.34,11.76,0,21.88,12.42,23.73,25.14,1.19,8.18,2.43,16.38,4.26,24.43,3.78,16.64,13.56,26.84,31.22,29.12,3.7.48,7.78,3.66,10.26,6.73,9.58,11.84,18.65,24.08,27.74,36.3,2.8,3.77,5,8,8.4,13.32-21.39,2.74-33.16,15.11-43.48,30.41-4.93,7.32-13.64,12-19.16,19-4.72,6-11,14.39-9.83,20.42s9.9,13.85,16.54,15.32c11.3,2.48,23.84,2.25,35.34.22,24.83-4.39,45,10.51,45.31,35.68.42,38.27,2.93,76.17,16.47,112.54.87,2.34.08,6.85-1.66,8.38-45.55,40.16-98.3,65-159.29,74.83-4.06-20.44-6.32-40.18-.18-59.49,2.15-6.75,9.3-11.78,13.41-18.08,5.59-8.55,10.47-17.56,16.22-27.36,9.53,2.63,21.58,6.17,33.77,9.18,3.5.87,7.42.56,11.09.2,9.19-.91,14.49-4.23,8.58-14.45-1.53-2.66-1.85-6-2.92-9.72,5.35-1.23,9.71-2.12,14-3.23,16.2-4.19,24.52-15.45,28.92-31s-.85-27.73-11.86-38c-11.18-10.45-25.14-14-40-14.05-2.18,0-4.37,2.52-6.56,3.88,2,1.54,3.74,3.81,6,4.46,4.34,1.27,9.15,1,13.39,2.5,4.59,1.58,9.41,3.65,13,6.8,9.92,8.67,11,25.55,2.69,33.54-6.81,6.59-28.53,5.24-35.13-2.52q-17.33-20.34-34.18-41.09c-8.52-10.55-19.08-17.23-32.73-17.87-3.75-.18-7.58,1.82-11.41,2.59-4.27.85-9.19,3.13-12.8,1.86-16.93-6-30.52-.48-43.27,10.31-16.77,14.19-32.9,29.37-51,41.65-8.33,5.65-20.64,7.27-31.17,7.36-10,.08-16-8-17.08-18.3-1.36-12.53,2.07-23.56,13.73-29.56,7.15-3.69,15.5-5,23.27-7.42-6.94-16.55-45.68-.78-54.87,22.61-7.62,19.38-1.33,34.71,12.73,48.07,4.13,3.93,8.75,7.36,12.78,13.84-7.84-.53-15.81-.37-23.5-1.73-23.64-4.19-47.34-8.25-70.69-13.74-17.29-4.07-32.89-3.53-46.76,9.16l-3.76-.93c.36-3.85-.62-8.73,1.37-11.35,4.47-5.87,9.7-11.78,15.89-15.61,24.18-14.95,39.42-38,53.82-61,8.74-13.95,12.3-31.24,17.53-47.24,2-6.05,2.05-12.71,5.57-19.71,1.66,4.26,2.71,8.91,5.15,12.67,2.25,3.49,6,6,9.05,9,2.38-3.81,7.2-8,6.67-11.34-1.35-8.39-5.11-16.39-8.48-26.25,9.7,0,19.35.12,29,0,16.11-.25,20.52-5,21.23-20.72.73-16.37-1.31-31.83-8.12-47.1-7.18-16.1.23-29.5,17-34.49,19.8-5.88,36.47-16.37,46.33-35,2.49-4.71,1.16-11.43,1.59-17.23-5,.63-10.21.66-15,2-9.91,2.83-19.48,6.88-29.43,9.54-34.92,9.37-44.65-4.5-57.87-35.51-3-7-2.26-15.47-3.84-23.14-.66-3.19-2.89-6.05-4.41-9.06-2.75,2.53-7.36,4.73-7.88,7.67a49,49,0,0,0,.19,19.49C379.41,416.66,383.41,425.76,387,436Z" transform="translate(-110.85 -147)"/><path class="cls-3" d="M840.88,670.63c-35.58-15.82-61-40.09-80.85-70.45-1.89-2.89-3.45-6.86-3.17-10.15,1.18-14,2.93-27.94,4.82-41.86,1.26-9.24,5.29-13.14,16-11.1,24.25,4.6,48.83,7.51,74.17,11.23C855.5,589.32,853.56,630.06,840.88,670.63Z" transform="translate(-110.85 -147)"/><path class="cls-1" d="M181.16,502.29l-2.36,10.44-2.36-7.18,21,4.73-5.64,3.21,7.86-16,12.64,2.85L200,554.88,187.36,552l-1.22-15.23,4,5.88L124.74,528l6.56-4.33-7.81,14-12.64-2.85,8.94-42.67,2.46-10.91q3.16-14.06,9.13-21.94t13.46-10.51a27.57,27.57,0,0,1,15.47-.83,28.31,28.31,0,0,1,14.6,8.36q6.12,6.43,8.07,17.84T181.16,502.29Zm-41.87-11.76-2.5,11.07-2.72-5.6,31.62,7.13-5.22,5.46,2.35-10.43q1.63-7.28-1.1-11.63a12.6,12.6,0,0,0-8.31-5.6q-5.31-1.2-9,1.2T139.29,490.53Z" transform="translate(-110.85 -147)"/><path class="cls-1" d="M258.85,369.42l-9.2,4.39,10-8.91,11.37,6.22-24.35,44.49-11.37-6.22,1.76-11.6,1.67,4.24-13.58-2.45,5.1-2.56-17.43,31.84L212,424.5l8.43,10-2.47-.62L225.7,427l11.37,6.22-21.62,39.52-11.38-6.23,2.16-12.85.94,8.82-52.09-70.62,15.85-30.31ZM203.72,414.8l-3.89.09,12.06-22,2,4.63L172,388.76l3.85-6.76Z" transform="translate(-110.85 -147)"/><path class="cls-1" d="M246.83,302.39q1.9,1.94,5.42,1.12a34.61,34.61,0,0,0,8.14-3.29q4.62-2.46,10-5.61a124,124,0,0,1,11.24-5.8,54.1,54.1,0,0,1,11.72-3.8,26.75,26.75,0,0,1,11.55.18,22,22,0,0,1,10.56,6.34q7.28,7.39,7.12,16.82t-5.95,19.59a91.51,91.51,0,0,1-15.49,19.72,134.55,134.55,0,0,1-14.41,12.27,137,137,0,0,1-16.43,10.45l-19-20.43,13.51-13.3,13.46,7.67-4.9-.82a47.63,47.63,0,0,0,8-4.54,55.5,55.5,0,0,0,7.29-6,37.34,37.34,0,0,0,5.11-6.12,14.28,14.28,0,0,0,2.36-5.69,5,5,0,0,0-1.37-4.39,5.82,5.82,0,0,0-5.68-1.5,31.34,31.34,0,0,0-8.13,3.18q-4.62,2.46-9.89,5.66c-3.52,2.12-7.19,4.1-11,5.91A50.91,50.91,0,0,1,248.57,334a25.47,25.47,0,0,1-11.4-.15,22.72,22.72,0,0,1-10.64-6.53q-7-7.11-7.29-15.84t4.7-18.09a76.48,76.48,0,0,1,14-18.24,130.71,130.71,0,0,1,14.67-12.35,146.65,146.65,0,0,1,17.46-10.91l16.23,19.49L272.44,285l-12-6,4-.52a53,53,0,0,0-6,4,60.63,60.63,0,0,0-5.57,4.85A40.37,40.37,0,0,0,248,293a14,14,0,0,0-2.41,5.29A4.39,4.39,0,0,0,246.83,302.39Z" transform="translate(-110.85 -147)"/><path class="cls-1" d="M333.74,309.7l-5.89-11.55L338.11,288l-1.31,6.35-30.37-59.46,7,2.38-15.4,2.62-5.9-11.54,46.61-24.54,5.9,11.55-10.43,11.29,1.71-7,12.14,23.78L342,242.16l37.66-19.24-2.56,5.67L365,204.93l6.75,2.52-15.11,2.48-5.9-11.55,46.61-24.53,5.9,11.54-10.06,11,1.34-6.65L425,249.27l-6.06-2.58,14.42-2.42,5.9,11.55-46.91,23.95-5.89-11.54,10.11-10.12-1.16,6.27-13.27-26,6.1,1.25L350.56,258.9l2.56-5.68,13.26,26-5.76-2.74,14.13-2.26,5.9,11.54Z" transform="translate(-110.85 -147)"/><path class="cls-1" d="M489.81,157.42,542,150l1.67,12.86-12.38,6.58,2.55-6.74,5.62,43.19a46,46,0,0,1-.21,14.67,30,30,0,0,1-4.86,11.68,34.42,34.42,0,0,1-9.14,8.84,51.68,51.68,0,0,1-13.09,6.15,95.91,95.91,0,0,1-16.85,3.63q-14.14,1.83-23.5.24t-14.92-5.38a26.59,26.59,0,0,1-8.3-8.53,34.62,34.62,0,0,1-3.81-9.24,75.47,75.47,0,0,1-1.48-7.59l-5.85-45,4.16,5.6L428,178.53l-1.68-12.85,52.14-7.44,1.68,12.86-11.9,6.51,2.09-6.54,5.85,45a41.66,41.66,0,0,0,1.21,6.12,18.35,18.35,0,0,0,1.89,4.52,8.23,8.23,0,0,0,3,3A11.62,11.62,0,0,0,486.8,231a26.23,26.23,0,0,0,6.35-.17,25.78,25.78,0,0,0,6.42-1.56,12.87,12.87,0,0,0,4.22-2.7,9.72,9.72,0,0,0,2.42-4,17.17,17.17,0,0,0,.77-5.39,52.82,52.82,0,0,0-.51-7.06L500.85,167l3.34,5.57-12.71-2.26Z" transform="translate(-110.85 -147)"/><path class="cls-1" d="M697.75,192.25,683,194.3l5.59-5.49-15.28,66.32-3-5.88,12.59,7.43L680,269.31,631.35,258.1l2.91-12.63,15.55-1.07-6.22,3.89,11.68-50.66,4.86,1.25-31,34.36-19.88-3.92-11.59-45,4.58,1.05-11.67,50.66-2.12-5.28,11.89,6.87-2.91,12.63-44.84-10.34,2.91-12.63L570,226.15l-5.24,4,15.28-66.32,2.68,7.13-12.59-7.42,2.91-12.64,49.26,10.69L630.66,207l-3.63-.84,28.64-36.23,45,9.7Z" transform="translate(-110.85 -147)"/><path class="cls-1" d="M764.47,231.4l-13.59-1.87,4.45-1.69-31,56.17-1-4.55,9.2,9.82-6.26,11.35-46.11-25.46,6.27-11.35,12.87,2.51-4,1.62,31-56.17,1.58,5.17-9.78-10.44,6.27-11.35,46.41,24.89Z" transform="translate(-110.85 -147)"/><path class="cls-1" d="M743.16,312.38l8.6-9.7,15.74,7.9L759,311.66l43.87-49.46,2.27,7.21-16.37-14.52,8.6,1.05-14.71,8.78-14.55-12.91,20-22.59,74.07,65.69-20,22.6L827.59,304.6l6.52-14.67,2.51,7.43-16.37-14.51,7.43,1.39L783.82,333.7l.3-8.4,9.47,14.47-8.6,9.7Z" transform="translate(-110.85 -147)"/><path class="cls-1" d="M800.05,362.18l11-6.86,10.83,9.29-6.24-.69,56.55-35.24-1.51,7.62-4.07-15.6,11-6.86,24,37.2,6.68,10.73q10.89,17.46,10.58,30T907.64,411a23.93,23.93,0,0,1-20.2,2.76q-10.76-3.14-22.25-17.93l2.7-1.3a38.24,38.24,0,0,1,4.7,9.39,18.82,18.82,0,0,1,.91,7.45,21.5,21.5,0,0,1-1.74,6.53L863,437.7l-1-10.1,4.1,16.15-11,6.86-17.48-28.06,13.06-25.13c1.65-3.06,2.84-5.4,3.57-7a6.81,6.81,0,0,0,.67-4.33,17.8,17.8,0,0,0-2.69-5.29l-3.11-4.75,5.71,2.55-21.67,13.51,2.15-6.11,3.54,14-11,6.86Zm61.77,12.1,2.76-7.82,6,9.62q4.29,6.89,8.62,8.57t9.07-1.26a9.29,9.29,0,0,0,4.5-6.15q.75-3.81-2.59-9.17l-7.89-12.65,6.05,2.34Z" transform="translate(-110.85 -147)"/><path class="cls-1" d="M892.18,551.9l3.81-9.45-1.37,13.36L882,558.92l-12.16-49.24,12.58-3.11L889,516.3l-4.1-2,11.66-7.39-2,5.34L885.84,477l3.58,2.62L876.47,478l2.23-1.22-1.07,10.28-12.58,3.11-10.8-43.73,12.58-3.11,7.11,10.93-6.66-5.87,86.14,16.78,8.82,33Zm9.91-70.71,2.81-2.7,6,24.39-4.64-2,36.78-21.93,1.74,7.58Z" transform="translate(-110.85 -147)"/></svg>